<svg xmlns="http://www.w3.org/2000/svg" viewBox="0 0 1766.69 2003.62"><defs><style>.cls-1{fill:#264de4;}.cls-2{fill:#2965f1;}.cls-3{fill:#ebebeb;}.cls-4{fill:#fff;}</style></defs><g id="Слой_2" data-name="Слой 2"><g id="Layer_1" data-name="Layer 1"><path class="cls-1" d="M882.26,2003.62l-721.48-200.3L0,0H1766.69l-161,1803.05L882.26,2003.61Z"/><path class="cls-2" d="M1468,1688.23,1605.48,147.44H883.34V1850.3L1468,1688.23Z"/><path class="cls-3" d="M368.59,816.27l19.82,221.17H883.34V816.27ZM328.75,368.62l20.11,221.17H883.34V368.62ZM883.34,1390.68l-1,.25-246.32-66.51L620.31,1148h-222l31,347.27,453.06,125.77,1-.28Z"/><path class="cls-4" d="M1396.69,816.27l39.92-447.65h-554V589.79h311.65l-20.12,226.48H882.58v221.17h272.35l-25.68,286.85-246.67,66.58V1621L1336,1495.3l3.32-37.36,52-582.28,5.4-59.39Z"/></g></g></svg>