<svg xmlns="http://www.w3.org/2000/svg" viewBox="0 0 363.69 412.7"><defs><style>.cls-1{fill:#e34e26;}.cls-2{fill:#ef662a;}.cls-3{fill:#fff;}.cls-4{fill:#ebebeb;}</style></defs><g id="Слой_2" data-name="Слой 2"><g id="Layer_1" data-name="Layer 1"><g id="Guides_to_delete" data-name="Guides to delete"><polygon class="cls-1" points="33.11 371.43 0 0 363.69 0 330.54 371.46 181.76 412.7 33.11 371.43"/><polygon class="cls-2" points="181.84 30.36 181.84 381.15 302.15 347.8 330.5 30.36 181.84 30.36"/><polygon class="cls-3" points="67.75 75.92 80.03 213.68 237.92 213.68 232.63 272.77 181.79 286.51 131.04 272.79 127.65 234.85 81.92 234.85 88.46 307.99 181.78 333.9 275.21 307.99 287.73 168.13 121.69 168.13 117.53 121.48 291.72 121.48 291.86 121.48 295.94 75.92 67.75 75.92"/><polygon class="cls-4" points="181.84 75.92 67.75 75.92 80.03 213.68 181.84 213.68 181.84 168.13 121.69 168.13 117.53 121.48 181.84 121.48 181.84 75.92"/><polygon class="cls-4" points="181.84 286.49 181.79 286.51 131.04 272.79 127.65 234.85 81.92 234.85 88.46 307.99 181.78 333.9 181.84 333.88 181.84 286.49"/></g></g></g></svg>