<svg xmlns="http://www.w3.org/2000/svg" viewBox="0 0 56.86 64.48"><defs><style>.cls-1{fill:#484847;}.cls-2{fill:#ef7c23;}.cls-3{fill:#f59c26;}.cls-4{fill:#fff;}.cls-5{fill:#f0f0f0;}</style></defs><g id="Слой_2" data-name="Слой 2"><g id="图层_1" data-name="图层 1"><polyline class="cls-1" points="28.39 64.48 5.18 58.04 0 0 56.86 0 51.68 58.03"/><polyline class="cls-1" points="47.25 54.33 51.67 4.74 28.43 4.74 28.43 59.55"/><polyline class="cls-1" points="29.72 11.86 29.72 18.98 45.63 18.63 46.23 11.86"/><polyline class="cls-1" points="43.03 26.27 29.72 26.27 29.72 33.39 38.8 32.8 37.98 42.33 29.72 44.41 29.72 51.81 43 48.12 43.1 46.92 44.78 28.18 44.95 26.27"/><polyline class="cls-1" points="35.6 29.92 29.72 29.92 29.72 15.42 36.25 15.42"/><polyline class="cls-1" points="26.91 44.35 17.7 41.74 17.41 37.76 12.82 36.95 13.81 48.12 26.91 51.76"/><polyline class="cls-1" points="26.91 11.86 20.86 11.86 22.12 48.34 26.91 48.34"/><polyline class="cls-2" points="28.39 64.48 5.18 58.04 0 0 56.86 0 51.68 58.03"/><polyline class="cls-3" points="47.25 54.33 51.67 4.74 28.43 4.74 28.43 59.55"/><polyline class="cls-4" points="29.72 11.86 29.72 18.98 45.63 18.63 46.23 11.86"/><polyline class="cls-4" points="43.03 26.27 29.72 26.27 29.72 33.39 38.8 32.8 37.98 42.33 29.72 44.41 29.72 51.81 43 48.12 43.1 46.92 44.78 28.18 44.95 26.27"/><polyline class="cls-4" points="35.6 29.92 29.72 29.92 29.72 15.42 36.25 15.42"/><polyline class="cls-5" points="26.91 44.35 17.7 41.74 17.41 37.76 12.82 36.95 13.81 48.12 26.91 51.76"/><polyline class="cls-5" points="26.91 11.86 20.86 11.86 22.12 48.34 26.91 48.34"/></g></g></svg>